# 3ds Max Wavefront OBJ Exporter v0.97b - (c)2007 guruware
# File Created: 07.03.2018 14:54:51

mtllib Bench.mtl

#
# object Box001
#

v  -0.4083 0.4549 0.5303
v  -0.4083 0.4549 -0.5332
v  0.1733 0.4549 -0.5332
v  0.1733 0.4549 0.5303
v  -0.4083 0.4818 0.5303
v  0.1733 0.4818 0.5303
v  0.1733 0.4818 -0.5332
v  -0.4083 0.4818 -0.5332
# 8 vertices

vn 0.0000 -1.0000 -0.0000
vn 0.0000 1.0000 -0.0000
vn 0.0000 0.0000 1.0000
vn 1.0000 0.0000 -0.0000
vn 0.0000 0.0000 -1.0000
vn -1.0000 0.0000 -0.0000
# 6 vertex normals

vt 1.0000 0.0000 0.0000
vt 1.0000 1.0000 0.0000
vt 0.0000 1.0000 0.0000
vt 0.0000 0.0000 0.0000
# 4 texture coords

g Box001
usemtl wire_224086086
s 2
f 1/1/1 2/2/1 3/3/1 4/4/1 
s 4
f 5/4/2 6/1/2 7/2/2 8/3/2 
s 8
f 1/4/3 4/1/3 6/2/3 5/3/3 
s 16
f 4/4/4 3/1/4 7/2/4 6/3/4 
s 32
f 3/4/5 2/1/5 8/2/5 7/3/5 
s 64
f 2/4/6 1/1/6 5/2/6 8/3/6 
# 6 polygons

#
# object Box002
#

v  0.1141 0.4707 0.5303
v  0.1141 0.4707 -0.5332
v  0.1668 0.4707 -0.5332
v  0.1668 0.4707 0.5303
v  0.1141 0.6174 0.5303
v  0.1668 0.6174 0.5303
v  0.1668 0.6174 -0.5332
v  0.1141 0.6174 -0.5332
# 8 vertices

vn 0.0000 -1.0000 -0.0000
vn 0.0000 1.0000 -0.0000
vn 0.0000 0.0000 1.0000
vn 1.0000 0.0000 -0.0000
vn 0.0000 0.0000 -1.0000
vn -1.0000 0.0000 -0.0000
# 6 vertex normals

vt 1.0000 0.0000 0.0000
vt 1.0000 1.0000 0.0000
vt 0.0000 1.0000 0.0000
vt 0.0000 0.0000 0.0000
# 4 texture coords

g Box002
usemtl wire_224086086
s 2
f 9/5/7 10/6/7 11/7/7 12/8/7 
s 4
f 13/8/8 14/5/8 15/6/8 16/7/8 
s 8
f 9/8/9 12/5/9 14/6/9 13/7/9 
s 16
f 12/8/10 11/5/10 15/6/10 14/7/10 
s 32
f 11/8/11 10/5/11 16/6/11 15/7/11 
s 64
f 10/8/12 9/5/12 13/6/12 16/7/12 
# 6 polygons

#
# object Box003
#

v  0.1220 -0.0000 0.5267
v  0.1220 -0.0000 0.4999
v  0.1589 -0.0000 0.4999
v  0.1589 -0.0000 0.5267
v  0.1220 0.4634 0.5267
v  0.1589 0.4634 0.5267
v  0.1589 0.4634 0.4999
v  0.1220 0.4634 0.4999
# 8 vertices

vn 0.0000 -1.0000 -0.0000
vn 0.0000 1.0000 -0.0000
vn 0.0000 0.0000 1.0000
vn 1.0000 0.0000 -0.0000
vn 0.0000 0.0000 -1.0000
vn -1.0000 0.0000 -0.0000
# 6 vertex normals

vt 1.0000 0.0000 0.0000
vt 1.0000 1.0000 0.0000
vt 0.0000 1.0000 0.0000
vt 0.0000 0.0000 0.0000
# 4 texture coords

g Box003
usemtl wire_224086086
s 2
f 17/9/13 18/10/13 19/11/13 20/12/13 
s 4
f 21/12/14 22/9/14 23/10/14 24/11/14 
s 8
f 17/12/15 20/9/15 22/10/15 21/11/15 
s 16
f 20/12/16 19/9/16 23/10/16 22/11/16 
s 32
f 19/12/17 18/9/17 24/10/17 23/11/17 
s 64
f 18/12/18 17/9/18 21/10/18 24/11/18 
# 6 polygons

#
# object Box004
#

v  -0.4030 -0.0000 0.5267
v  -0.4030 -0.0000 0.4999
v  -0.3660 -0.0000 0.4999
v  -0.3660 -0.0000 0.5267
v  -0.4030 0.4634 0.5267
v  -0.3660 0.4634 0.5267
v  -0.3660 0.4634 0.4999
v  -0.4030 0.4634 0.4999
# 8 vertices

vn 0.0000 -1.0000 -0.0000
vn 0.0000 1.0000 -0.0000
vn 0.0000 0.0000 1.0000
vn 1.0000 0.0000 -0.0000
vn 0.0000 0.0000 -1.0000
vn -1.0000 0.0000 -0.0000
# 6 vertex normals

vt 1.0000 0.0000 0.0000
vt 1.0000 1.0000 0.0000
vt 0.0000 1.0000 0.0000
vt 0.0000 0.0000 0.0000
# 4 texture coords

g Box004
usemtl wire_224086086
s 2
f 25/13/19 26/14/19 27/15/19 28/16/19 
s 4
f 29/16/20 30/13/20 31/14/20 32/15/20 
s 8
f 25/16/21 28/13/21 30/14/21 29/15/21 
s 16
f 28/16/22 27/13/22 31/14/22 30/15/22 
s 32
f 27/16/23 26/13/23 32/14/23 31/15/23 
s 64
f 26/16/24 25/13/24 29/14/24 32/15/24 
# 6 polygons

#
# object Box005
#

v  0.1220 -0.0000 -0.4997
v  0.1220 -0.0000 -0.5264
v  0.1589 -0.0000 -0.5264
v  0.1589 -0.0000 -0.4997
v  0.1220 0.4634 -0.4997
v  0.1589 0.4634 -0.4997
v  0.1589 0.4634 -0.5264
v  0.1220 0.4634 -0.5264
# 8 vertices

vn 0.0000 -1.0000 -0.0000
vn 0.0000 1.0000 -0.0000
vn 0.0000 0.0000 1.0000
vn 1.0000 0.0000 -0.0000
vn 0.0000 0.0000 -1.0000
vn -1.0000 0.0000 -0.0000
# 6 vertex normals

vt 1.0000 0.0000 0.0000
vt 1.0000 1.0000 0.0000
vt 0.0000 1.0000 0.0000
vt 0.0000 0.0000 0.0000
# 4 texture coords

g Box005
usemtl wire_224086086
s 2
f 33/17/25 34/18/25 35/19/25 36/20/25 
s 4
f 37/20/26 38/17/26 39/18/26 40/19/26 
s 8
f 33/20/27 36/17/27 38/18/27 37/19/27 
s 16
f 36/20/28 35/17/28 39/18/28 38/19/28 
s 32
f 35/20/29 34/17/29 40/18/29 39/19/29 
s 64
f 34/20/30 33/17/30 37/18/30 40/19/30 
# 6 polygons

#
# object Box006
#

v  -0.4030 -0.0000 -0.4997
v  -0.4030 -0.0000 -0.5264
v  -0.3660 -0.0000 -0.5264
v  -0.3660 -0.0000 -0.4997
v  -0.4030 0.4634 -0.4997
v  -0.3660 0.4634 -0.4997
v  -0.3660 0.4634 -0.5264
v  -0.4030 0.4634 -0.5264
# 8 vertices

vn 0.0000 -1.0000 -0.0000
vn 0.0000 1.0000 -0.0000
vn 0.0000 0.0000 1.0000
vn 1.0000 0.0000 -0.0000
vn 0.0000 0.0000 -1.0000
vn -1.0000 0.0000 -0.0000
# 6 vertex normals

vt 1.0000 0.0000 0.0000
vt 1.0000 1.0000 0.0000
vt 0.0000 1.0000 0.0000
vt 0.0000 0.0000 0.0000
# 4 texture coords

g Box006
usemtl wire_224086086
s 2
f 41/21/31 42/22/31 43/23/31 44/24/31 
s 4
f 45/24/32 46/21/32 47/22/32 48/23/32 
s 8
f 41/24/33 44/21/33 46/22/33 45/23/33 
s 16
f 44/24/34 43/21/34 47/22/34 46/23/34 
s 32
f 43/24/35 42/21/35 48/22/35 47/23/35 
s 64
f 42/24/36 41/21/36 45/22/36 48/23/36 
# 6 polygons

#
# object Box007
#

v  0.1566 0.2233 0.5303
v  0.1566 0.2233 -0.5332
v  0.1726 0.2233 -0.5332
v  0.1726 0.2233 0.5303
v  0.1566 0.3021 0.5303
v  0.1726 0.3021 0.5303
v  0.1726 0.3021 -0.5332
v  0.1566 0.3021 -0.5332
# 8 vertices

vn 0.0000 -1.0000 -0.0000
vn 0.0000 1.0000 -0.0000
vn 0.0000 0.0000 1.0000
vn 1.0000 0.0000 -0.0000
vn 0.0000 0.0000 -1.0000
vn -1.0000 0.0000 -0.0000
# 6 vertex normals

vt 1.0000 0.0000 0.0000
vt 1.0000 1.0000 0.0000
vt 0.0000 1.0000 0.0000
vt 0.0000 0.0000 0.0000
# 4 texture coords

g Box007
usemtl wire_224086086
s 2
f 49/25/37 50/26/37 51/27/37 52/28/37 
s 4
f 53/28/38 54/25/38 55/26/38 56/27/38 
s 8
f 49/28/39 52/25/39 54/26/39 53/27/39 
s 16
f 52/28/40 51/25/40 55/26/40 54/27/40 
s 32
f 51/28/41 50/25/41 56/26/41 55/27/41 
s 64
f 50/28/42 49/25/42 53/26/42 56/27/42 
# 6 polygons

#
# object Box008
#

v  -0.3989 0.2233 -0.5426
v  0.1576 0.2233 -0.5426
v  0.1576 0.2233 -0.5265
v  -0.3989 0.2233 -0.5265
v  -0.3989 0.3021 -0.5426
v  -0.3989 0.3021 -0.5265
v  0.1576 0.3021 -0.5265
v  0.1576 0.3021 -0.5426
# 8 vertices

vn 0.0000 -1.0000 -0.0000
vn 0.0000 1.0000 -0.0000
vn -1.0000 0.0000 -0.0000
vn -0.0000 0.0000 1.0000
vn 1.0000 0.0000 0.0000
vn 0.0000 0.0000 -1.0000
# 6 vertex normals

vt 1.0000 0.0000 0.0000
vt 1.0000 1.0000 0.0000
vt 0.0000 1.0000 0.0000
vt 0.0000 0.0000 0.0000
# 4 texture coords

g Box008
usemtl wire_224086086
s 2
f 57/29/43 58/30/43 59/31/43 60/32/43 
s 4
f 61/32/44 62/29/44 63/30/44 64/31/44 
s 8
f 57/32/45 60/29/45 62/30/45 61/31/45 
s 16
f 60/32/46 59/29/46 63/30/46 62/31/46 
s 32
f 59/32/47 58/29/47 64/30/47 63/31/47 
s 64
f 58/32/48 57/29/48 61/30/48 64/31/48 
# 6 polygons

#
# object Box009
#

v  -0.3989 0.2233 0.5265
v  0.1576 0.2233 0.5265
v  0.1576 0.2233 0.5426
v  -0.3989 0.2233 0.5426
v  -0.3989 0.3021 0.5265
v  -0.3989 0.3021 0.5426
v  0.1576 0.3021 0.5426
v  0.1576 0.3021 0.5265
# 8 vertices

vn 0.0000 -1.0000 -0.0000
vn 0.0000 1.0000 -0.0000
vn -1.0000 0.0000 -0.0000
vn -0.0000 0.0000 1.0000
vn 1.0000 0.0000 0.0000
vn 0.0000 0.0000 -1.0000
# 6 vertex normals

vt 1.0000 0.0000 0.0000
vt 1.0000 1.0000 0.0000
vt 0.0000 1.0000 0.0000
vt 0.0000 0.0000 0.0000
# 4 texture coords

g Box009
usemtl wire_224086086
s 2
f 65/33/49 66/34/49 67/35/49 68/36/49 
s 4
f 69/36/50 70/33/50 71/34/50 72/35/50 
s 8
f 65/36/51 68/33/51 70/34/51 69/35/51 
s 16
f 68/36/52 67/33/52 71/34/52 70/35/52 
s 32
f 67/36/53 66/33/53 72/34/53 71/35/53 
s 64
f 66/36/54 65/33/54 69/34/54 72/35/54 
# 6 polygons

#
# object Box010
#

v  -0.4129 0.2233 0.5303
v  -0.4129 0.2233 -0.5332
v  -0.3969 0.2233 -0.5332
v  -0.3969 0.2233 0.5303
v  -0.4129 0.3021 0.5303
v  -0.3969 0.3021 0.5303
v  -0.3969 0.3021 -0.5332
v  -0.4129 0.3021 -0.5332
# 8 vertices

vn 0.0000 -1.0000 -0.0000
vn 0.0000 1.0000 -0.0000
vn 0.0000 0.0000 1.0000
vn 1.0000 0.0000 -0.0000
vn 0.0000 0.0000 -1.0000
vn -1.0000 0.0000 -0.0000
# 6 vertex normals

vt 1.0000 0.0000 0.0000
vt 1.0000 1.0000 0.0000
vt 0.0000 1.0000 0.0000
vt 0.0000 0.0000 0.0000
# 4 texture coords

g Box010
usemtl wire_224086086
s 2
f 73/37/55 74/38/55 75/39/55 76/40/55 
s 4
f 77/40/56 78/37/56 79/38/56 80/39/56 
s 8
f 73/40/57 76/37/57 78/38/57 77/39/57 
s 16
f 76/40/58 75/37/58 79/38/58 78/39/58 
s 32
f 75/40/59 74/37/59 80/38/59 79/39/59 
s 64
f 74/40/60 73/37/60 77/38/60 80/39/60 
# 6 polygons

#
# object Box011
#

v  0.0423 0.5705 0.3520
v  0.0423 0.5705 -0.3549
v  0.0423 0.5545 -0.3549
v  0.0423 0.5545 0.3520
v  0.1211 0.5705 0.3520
v  0.1211 0.5545 0.3520
v  0.1211 0.5545 -0.3549
v  0.1211 0.5705 -0.3549
# 8 vertices

vn -1.0000 -0.0000 -0.0000
vn 1.0000 0.0000 -0.0000
vn 0.0000 0.0000 1.0000
vn 0.0000 -1.0000 -0.0000
vn 0.0000 0.0000 -1.0000
vn -0.0000 1.0000 -0.0000
# 6 vertex normals

vt 1.0000 0.0000 0.0000
vt 1.0000 1.0000 0.0000
vt 0.0000 1.0000 0.0000
vt 0.0000 0.0000 0.0000
# 4 texture coords

g Box011
usemtl wire_224086086
s 2
f 81/41/61 82/42/61 83/43/61 84/44/61 
s 4
f 85/44/62 86/41/62 87/42/62 88/43/62 
s 8
f 81/44/63 84/41/63 86/42/63 85/43/63 
s 16
f 84/44/64 83/41/64 87/42/64 86/43/64 
s 32
f 83/44/65 82/41/65 88/42/65 87/43/65 
s 64
f 82/44/66 81/41/66 85/42/66 88/43/66 
# 6 polygons

#
# object Box012
#

v  -0.3856 0.3789 0.2138
v  -0.3856 0.3789 -0.4931
v  -0.3856 -0.0006 -0.4931
v  -0.3856 -0.0006 0.2138
v  0.1498 0.3789 0.2138
v  0.1498 -0.0006 0.2138
v  0.1498 -0.0006 -0.4931
v  0.1498 0.3789 -0.4931
# 8 vertices

vn -1.0000 -0.0000 -0.0000
vn 1.0000 0.0000 -0.0000
vn 0.0000 0.0000 1.0000
vn 0.0000 -1.0000 -0.0000
vn 0.0000 0.0000 -1.0000
vn -0.0000 1.0000 -0.0000
# 6 vertex normals

vt 1.0000 0.0000 0.0000
vt 1.0000 1.0000 0.0000
vt 0.0000 1.0000 0.0000
vt 0.0000 0.0000 0.0000
# 4 texture coords

g Box012
usemtl wire_224086086
s 2
f 89/45/67 90/46/67 91/47/67 92/48/67 
s 4
f 93/48/68 94/45/68 95/46/68 96/47/68 
s 8
f 89/48/69 92/45/69 94/46/69 93/47/69 
s 16
f 92/48/70 91/45/70 95/46/70 94/47/70 
s 32
f 91/48/71 90/45/71 96/46/71 95/47/71 
s 64
f 90/48/72 89/45/72 93/46/72 96/47/72 
# 6 polygons

#
# object Cylinder001
#

v  0.3071 0.0216 -0.4285
v  0.3600 0.0216 -0.5201
v  0.3987 0.0216 -0.4814
v  0.4129 0.0216 -0.4285
v  0.2542 0.0216 -0.5201
v  0.3071 0.0216 -0.5343
v  0.2012 0.0216 -0.4285
v  0.2154 0.0216 -0.4814
v  0.2542 0.0216 -0.3368
v  0.2154 0.0216 -0.3755
v  0.3600 0.0216 -0.3368
v  0.3071 0.0216 -0.3226
v  0.3987 0.0216 -0.3755
v  0.3987 0.4709 -0.4814
v  0.4129 0.4709 -0.4285
v  0.3600 0.4709 -0.5201
v  0.3071 0.4709 -0.5343
v  0.2542 0.4709 -0.5201
v  0.2154 0.4709 -0.4814
v  0.2012 0.4709 -0.4285
v  0.2154 0.4709 -0.3755
v  0.2542 0.4709 -0.3368
v  0.3071 0.4709 -0.3226
v  0.3600 0.4709 -0.3368
v  0.3987 0.4709 -0.3755
v  0.3071 0.4709 -0.4285
# 26 vertices

vn 0.0000 -1.0000 -0.0000
vn 1.0000 0.0000 0.0000
vn 0.8660 0.0000 -0.5000
vn 0.5000 0.0000 -0.8660
vn -0.0000 0.0000 -1.0000
vn -0.5000 0.0000 -0.8660
vn -0.8660 0.0000 -0.5000
vn -1.0000 0.0000 -0.0000
vn -0.8660 0.0000 0.5000
vn -0.5000 0.0000 0.8660
vn -0.0000 0.0000 1.0000
vn 0.5000 0.0000 0.8660
vn 0.8660 0.0000 0.5000
vn 0.0000 1.0000 -0.0000
# 14 vertex normals

vt 0.5000 0.0000 0.0000
vt 0.9167 0.0000 1.0000
vt 0.8333 0.0000 1.0000
vt 0.7500 0.0000 1.0000
vt 0.0833 0.0000 1.0000
vt 0.0000 0.0000 1.0000
vt -0.0833 0.0000 1.0000
vt 0.2500 0.0000 1.0000
vt 0.1667 0.0000 1.0000
vt 0.4167 0.0000 1.0000
vt 0.3333 0.0000 1.0000
vt 0.5833 0.0000 1.0000
vt 0.5000 0.0000 1.0000
vt 0.6667 0.0000 1.0000
vt 0.8333 1.0000 1.0000
vt 0.7500 1.0000 1.0000
vt 0.9167 1.0000 1.0000
vt 0.0000 1.0000 1.0000
vt -0.0833 1.0000 1.0000
vt 0.0833 1.0000 1.0000
vt 0.1667 1.0000 1.0000
vt 0.2500 1.0000 1.0000
vt 0.3333 1.0000 1.0000
vt 0.4167 1.0000 1.0000
vt 0.5000 1.0000 1.0000
vt 0.5833 1.0000 1.0000
vt 0.6667 1.0000 1.0000
vt 0.5000 1.0000 0.0000
vt 0.8884 1.0000 0.7321
# 29 texture coords

g Cylinder001
usemtl wire_225088199
s 1
f 97/49/73 98/50/73 99/51/73 100/52/73 
f 97/49/73 101/53/73 102/54/73 98/55/73 
f 97/49/73 103/56/73 104/57/73 101/53/73 
f 97/49/73 105/58/73 106/59/73 103/56/73 
f 97/49/73 107/60/73 108/61/73 105/58/73 
f 97/49/73 100/52/73 109/62/73 107/60/73 
s 8
f 100/52/74 99/51/75 110/63/75 111/64/74 
f 99/51/75 98/50/76 112/65/76 110/63/75 
f 98/55/76 102/54/77 113/66/77 112/67/76 
f 102/54/77 101/53/78 114/68/78 113/66/77 
f 101/53/78 104/57/79 115/69/79 114/68/78 
f 104/57/79 103/56/80 116/70/80 115/69/79 
f 103/56/80 106/59/81 117/71/81 116/70/80 
f 106/59/81 105/58/82 118/72/82 117/71/81 
f 105/58/82 108/61/83 119/73/83 118/72/82 
f 108/61/83 107/60/84 120/74/84 119/73/83 
f 107/60/84 109/62/85 121/75/85 120/74/84 
f 109/62/85 100/52/74 111/64/74 121/75/85 
s 1
f 122/76/86 121/75/86 111/64/86 110/63/86 
f 122/76/86 110/63/86 112/65/86 113/77/86 
f 122/76/86 113/66/86 114/68/86 115/69/86 
f 122/76/86 115/69/86 116/70/86 117/71/86 
f 122/76/86 117/71/86 118/72/86 119/73/86 
f 122/76/86 119/73/86 120/74/86 121/75/86 
# 24 polygons

#
# object Cylinder002
#

v  0.3071 0.0216 -0.2201
v  0.3600 0.0216 -0.3117
v  0.3987 0.0216 -0.2730
v  0.4129 0.0216 -0.2201
v  0.2542 0.0216 -0.3117
v  0.3071 0.0216 -0.3259
v  0.2012 0.0216 -0.2201
v  0.2154 0.0216 -0.2730
v  0.2542 0.0216 -0.1284
v  0.2154 0.0216 -0.1671
v  0.3600 0.0216 -0.1284
v  0.3071 0.0216 -0.1142
v  0.3987 0.0216 -0.1671
v  0.3987 0.4709 -0.2730
v  0.4129 0.4709 -0.2201
v  0.3600 0.4709 -0.3117
v  0.3071 0.4709 -0.3259
v  0.2542 0.4709 -0.3117
v  0.2154 0.4709 -0.2730
v  0.2012 0.4709 -0.2201
v  0.2154 0.4709 -0.1671
v  0.2542 0.4709 -0.1284
v  0.3071 0.4709 -0.1142
v  0.3600 0.4709 -0.1284
v  0.3987 0.4709 -0.1671
v  0.3071 0.4709 -0.2201
# 26 vertices

vn 0.0000 -1.0000 -0.0000
vn 1.0000 0.0000 0.0000
vn 0.8660 0.0000 -0.5000
vn 0.5000 0.0000 -0.8660
vn -0.0000 0.0000 -1.0000
vn -0.5000 0.0000 -0.8660
vn -0.8660 0.0000 -0.5000
vn -1.0000 0.0000 -0.0000
vn -0.8660 0.0000 0.5000
vn -0.5000 0.0000 0.8660
vn -0.0000 0.0000 1.0000
vn 0.5000 0.0000 0.8660
vn 0.8660 0.0000 0.5000
vn 0.0000 1.0000 -0.0000
# 14 vertex normals

vt 0.5000 0.0000 0.0000
vt 0.9167 0.0000 1.0000
vt 0.8333 0.0000 1.0000
vt 0.7500 0.0000 1.0000
vt 0.0833 0.0000 1.0000
vt 0.0000 0.0000 1.0000
vt -0.0833 0.0000 1.0000
vt 0.2500 0.0000 1.0000
vt 0.1667 0.0000 1.0000
vt 0.4167 0.0000 1.0000
vt 0.3333 0.0000 1.0000
vt 0.5833 0.0000 1.0000
vt 0.5000 0.0000 1.0000
vt 0.6667 0.0000 1.0000
vt 0.8333 1.0000 1.0000
vt 0.7500 1.0000 1.0000
vt 0.9167 1.0000 1.0000
vt 0.0000 1.0000 1.0000
vt -0.0833 1.0000 1.0000
vt 0.0833 1.0000 1.0000
vt 0.1667 1.0000 1.0000
vt 0.2500 1.0000 1.0000
vt 0.3333 1.0000 1.0000
vt 0.4167 1.0000 1.0000
vt 0.5000 1.0000 1.0000
vt 0.5833 1.0000 1.0000
vt 0.6667 1.0000 1.0000
vt 0.5000 1.0000 0.0000
vt 0.8884 1.0000 0.7321
# 29 texture coords

g Cylinder002
usemtl wire_225088199
s 1
f 123/78/87 124/79/87 125/80/87 126/81/87 
f 123/78/87 127/82/87 128/83/87 124/84/87 
f 123/78/87 129/85/87 130/86/87 127/82/87 
f 123/78/87 131/87/87 132/88/87 129/85/87 
f 123/78/87 133/89/87 134/90/87 131/87/87 
f 123/78/87 126/81/87 135/91/87 133/89/87 
s 8
f 126/81/88 125/80/89 136/92/89 137/93/88 
f 125/80/89 124/79/90 138/94/90 136/92/89 
f 124/84/90 128/83/91 139/95/91 138/96/90 
f 128/83/91 127/82/92 140/97/92 139/95/91 
f 127/82/92 130/86/93 141/98/93 140/97/92 
f 130/86/93 129/85/94 142/99/94 141/98/93 
f 129/85/94 132/88/95 143/100/95 142/99/94 
f 132/88/95 131/87/96 144/101/96 143/100/95 
f 131/87/96 134/90/97 145/102/97 144/101/96 
f 134/90/97 133/89/98 146/103/98 145/102/97 
f 133/89/98 135/91/99 147/104/99 146/103/98 
f 135/91/99 126/81/88 137/93/88 147/104/99 
s 1
f 148/105/100 147/104/100 137/93/100 136/92/100 
f 148/105/100 136/92/100 138/94/100 139/106/100 
f 148/105/100 139/95/100 140/97/100 141/98/100 
f 148/105/100 141/98/100 142/99/100 143/100/100 
f 148/105/100 143/100/100 144/101/100 145/102/100 
f 148/105/100 145/102/100 146/103/100 147/104/100 
# 24 polygons

#
# object Box013
#

v  0.2668 0.4799 -0.1943
v  0.2668 0.4799 -0.4779
v  0.2668 0.4639 -0.4779
v  0.2668 0.4639 -0.1943
v  0.3455 0.4799 -0.1943
v  0.3455 0.4639 -0.1943
v  0.3455 0.4639 -0.4779
v  0.3455 0.4799 -0.4779
# 8 vertices

vn -1.0000 -0.0000 -0.0000
vn 1.0000 0.0000 -0.0000
vn 0.0000 0.0000 1.0000
vn 0.0000 -1.0000 -0.0000
vn 0.0000 0.0000 -1.0000
vn -0.0000 1.0000 -0.0000
# 6 vertex normals

vt 1.0000 0.0000 0.0000
vt 1.0000 1.0000 0.0000
vt 0.0000 1.0000 0.0000
vt 0.0000 0.0000 0.0000
# 4 texture coords

g Box013
usemtl wire_224086086
s 2
f 149/107/101 150/108/101 151/109/101 152/110/101 
s 4
f 153/110/102 154/107/102 155/108/102 156/109/102 
s 8
f 149/110/103 152/107/103 154/108/103 153/109/103 
s 16
f 152/110/104 151/107/104 155/108/104 154/109/104 
s 32
f 151/110/105 150/107/105 156/108/105 155/109/105 
s 64
f 150/110/106 149/107/106 153/108/106 156/109/106 
# 6 polygons

